<svg width="24" height="20" viewBox="0 0 24 20" fill="none" xmlns="http://www.w3.org/2000/svg">
<path d="M20.317 2.36997C18.761 1.65574 17.1189 1.14642 15.4319 0.854773C15.4166 0.851914 15.4007 0.85396 15.3866 0.860621C15.3725 0.867282 15.3609 0.878218 15.3534 0.891873C15.1424 1.26717 14.9087 1.75667 14.7451 2.14137C12.9004 1.86517 11.0651 1.86517 9.25829 2.14137C9.09469 1.74807 8.85249 1.26717 8.64059 0.891873C8.63274 0.878529 8.62105 0.867861 8.60705 0.86126C8.59305 0.85466 8.57738 0.852434 8.56209 0.854873C6.87487 1.14584 5.23269 1.65511 3.6769 2.36987C3.66359 2.37556 3.65237 2.38524 3.6448 2.39757C0.533403 7.04596 -0.318996 11.5801 0.0992039 16.058C0.100386 16.0689 0.103757 16.0795 0.109116 16.0892C0.114476 16.0988 0.121714 16.1073 0.130404 16.1141C2.1832 17.6217 4.1717 18.5368 6.1233 19.1434C6.13847 19.148 6.15467 19.1478 6.16971 19.1428C6.18476 19.1379 6.19795 19.1285 6.2075 19.1159C6.66909 18.4855 7.08059 17.8207 7.43349 17.1217C7.43834 17.1121 7.44111 17.1016 7.44162 17.0909C7.44212 17.0802 7.44035 17.0694 7.43642 17.0595C7.43249 17.0495 7.42649 17.0404 7.41882 17.0329C7.41114 17.0254 7.40197 17.0197 7.39189 17.016C6.73909 16.7684 6.1176 16.4665 5.5197 16.1237C5.50879 16.1173 5.49963 16.1083 5.49303 16.0975C5.48642 16.0867 5.48258 16.0745 5.48183 16.0618C5.48107 16.0492 5.48344 16.0366 5.48872 16.0251C5.494 16.0136 5.50203 16.0036 5.5121 15.996C5.6379 15.9017 5.7638 15.8037 5.8839 15.7046C5.89457 15.6958 5.90749 15.6901 5.9212 15.6883C5.93491 15.6864 5.94887 15.6884 5.9615 15.6941C9.88929 17.4874 14.1415 17.4874 18.0229 15.6941C18.0355 15.688 18.0496 15.6857 18.0635 15.6874C18.0774 15.6891 18.0905 15.6947 18.1014 15.7036C18.2216 15.8026 18.3474 15.9017 18.4742 15.996C18.4843 16.0035 18.4923 16.0135 18.4977 16.0249C18.503 16.0363 18.5055 16.0489 18.5048 16.0615C18.5042 16.0741 18.5005 16.0864 18.494 16.0972C18.4875 16.108 18.4784 16.1171 18.4676 16.1236C17.8695 16.4729 17.2429 16.7711 16.5946 17.015C16.5845 17.0188 16.5754 17.0247 16.5678 17.0324C16.5601 17.04 16.5542 17.0491 16.5504 17.0592C16.5465 17.0693 16.5449 17.08 16.5455 17.0908C16.5461 17.1016 16.5489 17.1121 16.5539 17.1217C16.9143 17.8197 17.3258 18.4845 17.7789 19.1149C17.7881 19.1279 17.8012 19.1376 17.8164 19.1427C17.8315 19.1479 17.8478 19.1481 17.8631 19.1434C19.8241 18.5368 21.8126 17.6216 23.8654 16.1141C23.8742 16.1076 23.8816 16.0993 23.887 16.0898C23.8924 16.0803 23.8957 16.0698 23.8967 16.0589C24.3971 10.8819 23.0585 6.38497 20.3482 2.39847C20.3415 2.38552 20.3305 2.37537 20.317 2.36987V2.36997ZM8.01999 13.3314C6.83749 13.3314 5.8631 12.2457 5.8631 10.9124C5.8631 9.57916 6.81859 8.49346 8.02009 8.49346C9.23089 8.49346 10.1958 9.58866 10.1769 10.9125C10.1769 12.2457 9.22139 13.3314 8.01999 13.3314ZM15.9948 13.3314C14.8123 13.3314 13.8379 12.2457 13.8379 10.9124C13.8379 9.57916 14.7933 8.49346 15.9948 8.49346C17.2056 8.49346 18.1705 9.58866 18.1516 10.9125C18.1516 12.2457 17.2056 13.3314 15.9948 13.3314Z" fill="#191604"/>
</svg>
