<svg width="24" height="24" viewBox="0 0 24 24" fill="none" xmlns="http://www.w3.org/2000/svg">
<g clip-path="url(#clip0_828_840)">
<path d="M12.1092 22.8645L7.60645 13.0864H16.6119L12.1092 22.8645Z" fill="#191604"/>
<path d="M6.27121 12.9056L10.5327 21.9742L0 8.82617L6.27121 12.9056Z" fill="#191604"/>
<path d="M16.6048 11.7958L7.54102 11.8349L8.73842 6.76259L15.2982 6.73438L16.6048 11.7958Z" fill="#191604"/>
<path d="M6.34953 11.4391L0.399414 7.66542L2.95168 4.229L7.72961 6.53297L6.34953 11.4391Z" fill="#191604"/>
<path d="M15.1159 1.13525L20.3071 3.3534L15.5462 5.57505L8.34625 5.52379L3.81445 3.31583L8.80728 1.13525H15.1159Z" fill="#191604"/>
<path d="M17.7115 11.4927L23.6499 7.72634L20.936 4.35889L16.3301 6.58738L17.7115 11.4927Z" fill="#191604"/>
<path d="M17.9359 12.9642L13.7324 22.033L24.0003 9.05371L17.9359 12.9642Z" fill="#191604"/>
</g>
<defs>
<clipPath id="clip0_828_840">
<rect width="24" height="24" fill="white"/>
</clipPath>
</defs>
</svg>
